<svg xmlns="http://www.w3.org/2000/svg">
	<symbol id="icon-instagram" viewBox="0 0 512 512">
		<path d="M256 46.1c68.4 0 76.5 0.3 103.4 1.5 25 1.1 38.5 5.3 47.5 8.8 11.9 4.6 20.5 10.2 29.4 19.1 9 9 14.5 17.5 19.2 29.4 3.5 9 7.7 22.6 8.8 47.5 1.2 27 1.5 35.1 1.5 103.4s-0.3 76.5-1.5 103.4c-1.1 25-5.3 38.5-8.8 47.5-4.6 11.9-10.2 20.5-19.1 29.4-9 9-17.5 14.5-29.4 19.2-9 3.5-22.6 7.7-47.5 8.8-27 1.2-35.1 1.5-103.4 1.5s-76.5-0.3-103.4-1.5c-25-1.1-38.5-5.3-47.5-8.8-11.9-4.6-20.5-10.2-29.4-19.1-9-9-14.5-17.5-19.2-29.4-3.5-9-7.7-22.6-8.8-47.5-1.2-27-1.5-35.1-1.5-103.4s0.3-76.5 1.5-103.4c1.1-25 5.3-38.5 8.8-47.5 4.6-11.9 10.2-20.5 19.1-29.4 9-9 17.5-14.5 29.4-19.2 9-3.5 22.6-7.7 47.5-8.8 26.9-1.2 35-1.5 103.4-1.5zM256 0c-69.5 0-78.2 0.3-105.5 1.5-27.2 1.2-45.9 5.6-62.1 11.9-16.9 6.6-31.2 15.3-45.4 29.6-14.3 14.2-23 28.5-29.6 45.3-6.3 16.3-10.7 34.9-11.9 62.1-1.2 27.4-1.5 36.1-1.5 105.6s0.3 78.2 1.5 105.5c1.2 27.2 5.6 45.9 11.9 62.1 6.6 16.9 15.3 31.2 29.6 45.4 14.2 14.2 28.5 23 45.3 29.5 16.3 6.3 34.9 10.7 62.1 11.9 27.3 1.2 36 1.5 105.5 1.5s78.2-0.3 105.5-1.5c27.2-1.2 45.9-5.6 62.1-11.9 16.8-6.5 31.1-15.3 45.3-29.5s23-28.5 29.5-45.3c6.3-16.3 10.7-34.9 11.9-62.1 1.2-27.3 1.5-36 1.5-105.5s-0.3-78.2-1.5-105.5c-1.2-27.2-5.6-45.9-11.9-62.1-6.3-17-15-31.3-29.3-45.5-14.2-14.2-28.5-23-45.3-29.5-16.3-6.3-34.9-10.7-62.1-11.9-27.4-1.3-36.1-1.6-105.6-1.6v0z"/>
		<path d="M256 124.5c-72.6 0-131.5 58.9-131.5 131.5s58.9 131.5 131.5 131.5 131.5-58.9 131.5-131.5c0-72.6-58.9-131.5-131.5-131.5zM256 341.3c-47.1 0-85.3-38.2-85.3-85.3s38.2-85.3 85.3-85.3c47.1 0 85.3 38.2 85.3 85.3s-38.2 85.3-85.3 85.3z"/>
		<path d="M423.4 119.3c0 16.955-13.745 30.7-30.7 30.7s-30.7-13.745-30.7-30.7c0-16.955 13.745-30.7 30.7-30.7s30.7 13.745 30.7 30.7z"/>
	</symbol>
	<symbol id="icon-telegram" viewBox="0 0 19 17">
		<path d="M19 0.602225L15.9946 16.2923C15.9946 16.2923 15.5741 17.3801 14.4189 16.8584L7.48458 11.3526L7.45242 11.3364C8.38909 10.4654 15.6524 3.70266 15.9698 3.39612C16.4613 2.92136 16.1562 2.63873 15.5856 2.99736L4.85679 10.053L0.717638 8.61077C0.717638 8.61077 0.0662573 8.37083 0.00359284 7.84911C-0.0598962 7.32653 0.739076 7.0439 0.739076 7.0439L17.6131 0.188948C17.6131 0.188948 19 -0.44207 19 0.602225Z"/>
	</symbol>
	<symbol id="icon-phone" viewBox="0 0 14 14">
		<path d="M13.6189 10.2746L11.6652 8.32085C10.9674 7.62308 9.7812 7.90222 9.50209 8.80928C9.29276 9.4373 8.595 9.78618 7.96701 9.6466C6.57148 9.29772 4.68752 7.48353 4.33863 6.01822C4.1293 5.39021 4.54796 4.69244 5.17595 4.48314C6.08305 4.20403 6.36215 3.01783 5.66439 2.32007L3.71064 0.366327C3.15243 -0.122109 2.31511 -0.122109 1.82668 0.366327L0.500926 1.69208C-0.824828 3.08761 0.640479 6.78576 3.91997 10.0653C7.19947 13.3448 10.8976 14.8799 12.2932 13.4843L13.6189 12.1586C14.1074 11.6003 14.1074 10.763 13.6189 10.2746Z"/>
	</symbol>
	<symbol id="icon-cross" viewBox="0 0 10.192457 10.192453">
		<path fill-rule="evenodd" clip-rule="evenodd" d="m 9.3388825,10.045954 c 0.1953,0.195299 0.5118,0.195299 0.7071005,0 0.1953,-0.1953005 0.1953,-0.5119005 0,-0.7071005 l -4.2426205,-4.24264 4.2426195,-4.24258 c 0.1952,-0.19527 0.1952,-0.51185 0,-0.70711 -0.1952995,-0.195263 -0.5118995,-0.195263 -0.7070995,0 l -4.24263,4.24258 -4.24266,-4.24266 c -0.19526,-0.195258 -0.51184,-0.195258 -0.707104,0 -0.195263,0.19527 -0.195263,0.51185 0,0.70711 l 4.242654,4.24266 -4.242696,4.24274 c -0.195262,0.1952 -0.195262,0.5118 0,0.7070995 0.195266,0.1952 0.511846,0.1952 0.707106,0 l 4.2427,-4.2427295 z"/>
	</symbol>
	<symbol id="icon-cross-bold" viewBox="0 0 9.9996977 10.000261">
		<path d="M 9.0291458,4.1288338e-4 A 1,1 0 0 0 8.2928178,0.29338168 L 0.29281765,8.2933819 a 1,1 0 0 0 0,1.414062 1,1 0 0 0 1.41406235,0 L 9.7068798,1.7074441 a 1,1 0 0 0 0,-1.41406242 1,1 0 0 0 -0.677734,-0.29296879662 z"/>
		<path d="M 1.0291457,4.1288338e-4 A 1,1 0 0 0 0.29281765,0.29338168 a 1,1 0 0 0 0,1.41406242 L 8.2928178,9.7074439 a 1,1 0 0 0 1.414062,0 1,1 0 0 0 0,-1.414062 L 1.70688,0.29338168 A 1,1 0 0 0 1.0291457,4.1288338e-4 Z"/>
	</symbol>
	<symbol id="icon-ok" viewBox="0 0 15.688 11.38">
		<path d="M543.339,1491.68a1.034,1.034,0,0,1-.73-0.3l-4.315-4.31a1.033,1.033,0,0,1,1.461-1.46l3.584,3.58,8.59-8.58a1.02,1.02,0,0,1,1.46,0,1.031,1.031,0,0,1,0,1.46l-9.319,9.31A1.035,1.035,0,0,1,543.339,1491.68Z" transform="translate(-538 -1480.31)" fill-rule="evenodd"/>
	</symbol>
	<symbol id="icon-arrow-long" viewBox="0 0 26.000105 14.060141">
		<path d="m 18.986328,0 c -0.305125,0 -0.610297,0.11617425 -0.841797,0.34765625 -0.463,0.462965 -0.463,1.22063375 0,1.68359375 l 3.808594,3.8085938 H 1.1894531 C 0.53200015,5.8398438 0,6.3718569 0,7.0292969 0,7.6867369 0.53200014,8.2207031 1.1894531,8.2207031 H 21.955078 l -3.810547,3.8085939 c -0.463,0.463 -0.463,1.220594 0,1.683594 0.463,0.463 1.220594,0.463 1.683594,0 L 25.652344,7.8886719 C 25.887944,7.6531319 26.0041,7.34171 26,7.03125 26.000001,7.0305841 26,7.02996 26,7.0293 26,7.02237 25.9962,7.016672 25.9961,7.009769 25.99458,6.70651 25.882408,6.4018807 25.652344,6.171875 L 19.828125,0.34765625 C 19.596625,0.11617425 19.291453,0 18.986328,0 Z" />
	</symbol>
	<symbol id="icon-arrow-short" viewBox="0 0 6.585 11.175024">
		<path d="m 0.2925,1.71252 3.88,3.88 -3.88,3.88 c -0.39,0.39 -0.39,1.02 0,1.410004 0.39,0.39 1.02,0.39 1.41,0 l 4.59,-4.590004 c 0.39,-0.39 0.39,-1.02 0,-1.41 L 1.7025,0.2925 c -0.39,-0.39 -1.02,-0.39 -1.41,0 -0.38,0.39 -0.39,1.03 0,1.42002 z"/>
	</symbol>
	<symbol id="icon-search" viewBox="0 0 24 24">
		<path d="M18.031 16.617L22.314 20.899L20.899 22.314L16.617 18.031C15.0237 19.3082 13.042 20.0029 11 20C6.032 20 2 15.968 2 11C2 6.032 6.032 2 11 2C15.968 2 20 6.032 20 11C20.0029 13.042 19.3082 15.0237 18.031 16.617ZM16.025 15.875C17.2941 14.5699 18.0029 12.8204 18 11C18 7.132 14.867 4 11 4C7.132 4 4 7.132 4 11C4 14.867 7.132 18 11 18C12.8204 18.0029 14.5699 17.2941 15.875 16.025L16.025 15.875Z"/>
	</symbol>
	<symbol id="icon-email" viewBox="0 0 22 18">
		<path d="M 3,0 C 1.3545455,0 0,1.3545455 0,3 v 12 c 0,1.645455 1.3545455,3 3,3 h 16 c 1.645455,0 3,-1.354545 3,-3 V 3 C 22,1.3545455 20.645455,0 19,0 Z m 0,2 h 16 c 0.554545,0 1,0.4454545 1,1 v 12 c 0,0.554545 -0.445455,1 -1,1 H 3 C 2.4454545,16 2,15.554545 2,15 V 3 C 2,2.4454545 2.4454545,2 3,2 Z"/>
		<path d="M 1.0214844,2 A 1,1 0 0 0 0.1816406,2.4257812 1,1 0 0 0 0.4257812,3.8183594 l 9.9999998,6.9999996 a 1.0001,1.0001 0 0 0 1.148438,0 l 10,-6.9999996 A 1,1 0 0 0 21.818359,2.4257812 1,1 0 0 0 20.425781,2.1816406 L 11,8.779297 1.5742188,2.1816406 A 1,1 0 0 0 1.0214844,2 Z"/>
	</symbol>
	<symbol id="icon-menu" viewBox="0 0 23 21">
		<path d="M-1 1.5H23M-1 10.5H23M-1 19.5H23" stroke-width="2" stroke-linejoin="round"/>
	</symbol>
	<symbol id="icon-spinner" viewBox="0 0 512 512">
		<path d="M96 256c0-6.090 0.352-12.098 1.015-18.011l-92.49-30.052c-2.958 15.57-4.525 31.632-4.525 48.063 0 73.615 31.083 139.961 80.827 186.662l57.142-78.648c-26.062-28.463-41.969-66.379-41.969-108.014zM416 256c0 41.634-15.906 79.551-41.969 108.014l57.142 78.648c49.744-46.701 80.827-113.047 80.827-186.662 0-16.431-1.566-32.493-4.524-48.063l-92.49 30.052c0.662 5.914 1.014 11.921 1.014 18.011zM288 99.204c45.967 9.331 84.772 38.371 107.225 77.913l92.489-30.051c-36.598-77.71-111.12-134.030-199.714-145.078v97.216zM116.775 177.116c22.453-39.542 61.258-68.582 107.225-77.913v-97.215c-88.594 11.048-163.115 67.368-199.713 145.077l92.488 30.051zM322.278 401.664c-20.195 9.204-42.636 14.336-66.278 14.336s-46.083-5.132-66.277-14.335l-57.146 78.655c36.603 20.183 78.668 31.68 123.423 31.68s86.82-11.497 123.424-31.68l-57.146-78.656z"/>
	</symbol>
	<symbol id="icon-mobile" viewBox="0 0 18.687 29.88">
		<path d="M233.723,4588.82H248.65a1.87,1.87,0,0,1,1.866,1.87v26.12a1.87,1.87,0,0,1-1.866,1.87H233.723a1.87,1.87,0,0,1-1.866-1.87v-26.12A1.87,1.87,0,0,1,233.723,4588.82Zm3.265,1.87h8.4a0.465,0.465,0,1,1,0,.93h-8.4A0.465,0.465,0,1,1,236.988,4590.69Zm-3.265,2.8H248.65v21.46H233.723v-21.46Zm7.464,22.39a0.93,0.93,0,1,1-.933.93A0.934,0.934,0,0,1,241.187,4615.88Z" transform="translate(-231.844 -4588.81)" fill-rule="evenodd" />
	</symbol>
	<symbol id="icon-round-arrows" viewBox="0 0 705.82477 863.42748">
		<g transform="translate(280.3377,21.59442)">
			<path d="M -79.388183,779.23169 C -131.25051,768.208 -173.73095,737.20534 -200.49353,695.99453 l 21.67138,-14.07019 -101.51555,-48.92159 0.57093,111.25434 25.60408,-13.40937 c 35.68227,54.94852 92.32004,96.28749 161.468166,110.98538 13.306341,-62.60141 0,0 13.306341,-62.60141 z" />
			<path d="m 224.53737,41.007023 c 51.86237,11.023686 94.34285,42.026358 121.10546,83.237177 L 323.97144,138.31439 425.48708,187.236 424.91613,75.981651 399.31202,89.391023 C 363.62971,34.442497 306.9919,-6.8965187 237.84372,-21.59442 c -13.30635,62.601443 0,0 -13.30635,62.601443 z" />
		</g>
	</symbol>
	<!-- new -->
	<symbol id="icon-at" viewBox="0 0 512 512">
		<path d="M256 8C118.941 8 8 118.919 8 256c0 137.059 110.919 248 248 248 48.154 0 95.342-14.14 135.408-40.223 12.005-7.815 14.625-24.288 5.552-35.372l-10.177-12.433c-7.671-9.371-21.179-11.667-31.373-5.129C325.92 429.757 291.314 440 256 440c-101.458 0-184-82.542-184-184S154.542 72 256 72c100.139 0 184 57.619 184 160 0 38.786-21.093 79.742-58.17 83.693-17.349-.454-16.91-12.857-13.476-30.024l23.433-121.11C394.653 149.75 383.308 136 368.225 136h-44.981a13.518 13.518 0 0 0-13.432 11.993l-.01.092c-14.697-17.901-40.448-21.775-59.971-21.775-74.58 0-137.831 62.234-137.831 151.46 0 65.303 36.785 105.87 96 105.87 26.984 0 57.369-15.637 74.991-38.333 9.522 34.104 40.613 34.103 70.71 34.103C462.609 379.41 504 307.798 504 232 504 95.653 394.023 8 256 8zm-21.68 304.43c-22.249 0-36.07-15.623-36.07-40.771 0-44.993 30.779-72.729 58.63-72.729 22.292 0 35.601 15.241 35.601 40.77 0 45.061-33.875 72.73-58.161 72.73z"/>
	</symbol>
	<symbol id="icon-lorry" viewBox="0 0 49 48">
		<path d="M6.5 24H24.5V27H6.5V24ZM3.5 16.5H18.5V19.5H3.5V16.5Z"/>
		<path d="M45.3785 24.909L40.8785 14.409C40.763 14.1391 40.5708 13.9091 40.3258 13.7475C40.0807 13.5859 39.7936 13.4998 39.5 13.5H35V10.5C35 10.1022 34.842 9.72064 34.5607 9.43934C34.2794 9.15804 33.8978 9 33.5 9H9.50001V12H32V30.834C31.3165 31.2309 30.7183 31.7592 30.24 32.3884C29.7617 33.0176 29.4126 33.7352 29.213 34.5H19.787C19.4219 33.086 18.5537 31.8537 17.345 31.0341C16.1363 30.2145 14.6702 29.8638 13.2215 30.0478C11.7728 30.2318 10.4409 30.9379 9.47553 32.0337C8.51015 33.1294 7.97754 34.5396 7.97754 36C7.97754 37.4604 8.51015 38.8706 9.47553 39.9663C10.4409 41.0621 11.7728 41.7682 13.2215 41.9522C14.6702 42.1362 16.1363 41.7855 17.345 40.9659C18.5537 40.1463 19.4219 38.914 19.787 37.5H29.213C29.5393 38.7874 30.2856 39.9292 31.3337 40.7448C32.3818 41.5604 33.6719 42.0032 35 42.0032C36.3281 42.0032 37.6182 41.5604 38.6663 40.7448C39.7145 39.9292 40.4607 38.7874 40.787 37.5H44C44.3978 37.5 44.7794 37.342 45.0607 37.0607C45.342 36.7794 45.5 36.3978 45.5 36V25.5C45.5001 25.2968 45.4587 25.0957 45.3785 24.909ZM14 39C13.4067 39 12.8267 38.8241 12.3333 38.4944C11.84 38.1648 11.4554 37.6962 11.2284 37.1481C11.0013 36.5999 10.9419 35.9967 11.0577 35.4147C11.1734 34.8328 11.4591 34.2982 11.8787 33.8787C12.2983 33.4591 12.8328 33.1734 13.4147 33.0576C13.9967 32.9419 14.5999 33.0013 15.1481 33.2284C15.6962 33.4554 16.1648 33.8399 16.4944 34.3333C16.8241 34.8266 17 35.4067 17 36C16.9992 36.7954 16.6829 37.558 16.1205 38.1204C15.558 38.6829 14.7954 38.9992 14 39ZM35 16.5H38.51L41.726 24H35V16.5ZM35 39C34.4067 39 33.8267 38.8241 33.3333 38.4944C32.84 38.1648 32.4554 37.6962 32.2284 37.1481C32.0013 36.5999 31.9419 35.9967 32.0577 35.4147C32.1734 34.8328 32.4591 34.2982 32.8787 33.8787C33.2983 33.4591 33.8328 33.1734 34.4147 33.0576C34.9967 32.9419 35.5999 33.0013 36.1481 33.2284C36.6962 33.4554 37.1648 33.8399 37.4944 34.3333C37.8241 34.8266 38 35.4067 38 36C37.9992 36.7954 37.6829 37.558 37.1205 38.1204C36.558 38.6829 35.7954 38.9992 35 39ZM42.5 34.5H40.787C40.4566 33.2151 39.7092 32.0763 38.6619 31.2619C37.6146 30.4475 36.3267 30.0037 35 30V27H42.5V34.5Z"/>
	</symbol>
	<symbol id="icon-apostile" viewBox="0 0 45 42">
		<path d="M15.7 42L11.9 35.6L4.7 34L5.4 26.6L0.5 21L5.4 15.4L4.7 8L11.9 6.4L15.7 0L22.5 2.9L29.3 0L33.1 6.4L40.3 8L39.6 15.4L44.5 21L39.6 26.6L40.3 34L33.1 35.6L29.3 42L22.5 39.1L15.7 42ZM20.4 28.1L31.7 16.8L28.9 13.9L20.4 22.4L16.1 18.2L13.3 21L20.4 28.1Z"/>
	</symbol>
	<symbol id="icon-medal" viewBox="0 0 49 48">
		<path d="M41 17.9998C41.0026 15.2189 40.3023 12.4825 38.9642 10.0448C37.6261 7.60703 35.6935 5.54702 33.3461 4.05613C30.9987 2.56523 28.3125 1.69181 25.5372 1.51701C22.7618 1.34221 19.9873 1.87169 17.4714 3.05628C14.9554 4.24087 12.7797 6.04212 11.1463 8.29272C9.51289 10.5433 8.4748 13.1702 8.12847 15.9294C7.78213 18.6886 8.13879 21.4906 9.1653 24.0751C10.1918 26.6596 11.8549 28.9427 14 30.7123V44.9998C13.9985 45.2558 14.0633 45.5078 14.1882 45.7312C14.313 45.9547 14.4937 46.142 14.7125 46.2748C14.9295 46.4112 15.1779 46.4898 15.434 46.5029C15.69 46.516 15.9451 46.4633 16.175 46.3498L24.5 42.1685L32.825 46.3498C33.0379 46.4439 33.2673 46.4949 33.5 46.4998C33.8978 46.4998 34.2794 46.3418 34.5607 46.0605C34.842 45.7792 35 45.3976 35 44.9998V30.7123C36.8765 29.1676 38.3877 27.2266 39.4251 25.0287C40.4625 22.8307 41.0003 20.4303 41 17.9998ZM11 17.9998C11 15.3297 11.7918 12.7197 13.2752 10.4996C14.7586 8.27953 16.867 6.5492 19.3338 5.52742C21.8006 4.50564 24.515 4.23829 27.1337 4.75919C29.7525 5.28009 32.1579 6.56584 34.0459 8.45385C35.9339 10.3419 37.2197 12.7473 37.7406 15.3661C38.2615 17.9848 37.9942 20.6992 36.9724 23.166C35.9506 25.6328 34.2203 27.7412 32.0002 29.2246C29.7801 30.708 27.17 31.4998 24.5 31.4998C20.9211 31.4948 17.4902 30.0709 14.9595 27.5403C12.4289 25.0096 11.005 21.5787 11 17.9998ZM32 42.5811L25.175 39.1498C24.9644 39.0484 24.7337 38.9958 24.5 38.9958C24.2663 38.9958 24.0356 39.0484 23.825 39.1498L17 42.5811V32.6998C19.3229 33.8835 21.8929 34.5006 24.5 34.5006C27.1071 34.5006 29.6771 33.8835 32 32.6998V42.5811ZM24.5 28.4998C26.5767 28.4998 28.6068 27.884 30.3335 26.7302C32.0602 25.5765 33.406 23.9366 34.2007 22.018C34.9955 20.0993 35.2034 17.9881 34.7982 15.9513C34.3931 13.9145 33.3931 12.0436 31.9246 10.5752C30.4562 9.10672 28.5852 8.10669 26.5484 7.70155C24.5116 7.2964 22.4004 7.50434 20.4818 8.29906C18.5632 9.09378 16.9233 10.4396 15.7696 12.1663C14.6158 13.893 14 15.9231 14 17.9998C14 20.7846 15.1062 23.4553 17.0754 25.4244C19.0445 27.3935 21.7152 28.4998 24.5 28.4998ZM24.5 10.4998C25.9834 10.4998 27.4334 10.9397 28.6668 11.7638C29.9001 12.5879 30.8614 13.7592 31.4291 15.1297C31.9967 16.5001 32.1453 18.0081 31.8559 19.463C31.5665 20.9178 30.8522 22.2542 29.8033 23.3031C28.7544 24.352 27.418 25.0663 25.9632 25.3557C24.5083 25.6451 23.0003 25.4966 21.6299 24.9289C20.2594 24.3612 19.0881 23.3999 18.264 22.1666C17.4399 20.9332 17 19.4832 17 17.9998C17.0049 16.0122 17.7967 14.1074 19.2022 12.702C20.6076 11.2965 22.5124 10.5047 24.5 10.4998Z"/>
	</symbol>
	<symbol id="icon-engine" viewBox="0 0 16 13">
		<path d="M0.5 4.83317V9.83317V4.83317ZM8 0.666504V3.1665V0.666504ZM6.33333 0.666504H9.66667H6.33333ZM2.16667 7.33317H0.5H2.16667ZM3 4.83317H4.66667L6.33333 3.1665H9.15167C9.30639 3.16659 9.45802 3.20974 9.5896 3.29113C9.72118 3.37252 9.82751 3.48894 9.89667 3.62734L11.1033 6.039C11.1725 6.1774 11.2788 6.29382 11.4104 6.37521C11.542 6.4566 11.6936 6.49975 11.8483 6.49984H13V4.83317H14.6667C14.8877 4.83317 15.0996 4.92097 15.2559 5.07725C15.4122 5.23353 15.5 5.44549 15.5 5.6665V10.6665C15.5 10.8875 15.4122 11.0995 15.2559 11.2558C15.0996 11.412 14.8877 11.4998 14.6667 11.4998H13V9.83317H10.5V11.4998C10.5 11.7209 10.4122 11.9328 10.2559 12.0891C10.0996 12.2454 9.88768 12.3332 9.66667 12.3332H6.77917C6.64201 12.3332 6.50696 12.2994 6.38601 12.2347C6.26507 12.17 6.16196 12.0764 6.08583 11.9623L4.66667 9.83317H3V4.83317Z"/>
		<path d="M0.5 4.83317V9.83317M8 0.666504V3.1665M6.33333 0.666504H9.66667M2.16667 7.33317H0.5M3 4.83317H4.66667L6.33333 3.1665H9.15167C9.30638 3.16659 9.45803 3.20974 9.5896 3.29113C9.72118 3.37252 9.82751 3.48894 9.89667 3.62734L11.1033 6.039C11.1725 6.1774 11.2788 6.29382 11.4104 6.37521C11.542 6.4566 11.6936 6.49975 11.8483 6.49984H13V4.83317H14.6667C14.8877 4.83317 15.0996 4.92097 15.2559 5.07725C15.4122 5.23353 15.5 5.44549 15.5 5.6665V10.6665C15.5 10.8875 15.4122 11.0995 15.2559 11.2558C15.0996 11.412 14.8877 11.4998 14.6667 11.4998H13V9.83317H10.5V11.4998C10.5 11.7209 10.4122 11.9328 10.2559 12.0891C10.0996 12.2454 9.88768 12.3332 9.66667 12.3332H6.77917C6.64201 12.3332 6.50696 12.2994 6.38601 12.2347C6.26507 12.17 6.16196 12.0764 6.08583 11.9623L4.66667 9.83317H3V4.83317Z" stroke-linecap="round" stroke-linejoin="round"/>
	</symbol>
	<symbol id="icon-transmission" viewBox="0 0 16 17">
		<path d="M1.03 3.57799C1.01852 3.61362 1.01179 3.6506 1.01 3.68799V8.48799C1.01 8.64712 1.07321 8.79973 1.18574 8.91225C1.29826 9.02478 1.45087 9.08799 1.61 9.08799H7.41V13.288C7.41 13.328 7.43 13.358 7.43 13.398C7.08222 13.5333 6.79267 13.7858 6.61142 14.112C6.43017 14.4382 6.36863 14.8175 6.43744 15.1842C6.50626 15.551 6.7011 15.8821 6.98826 16.1204C7.27542 16.3587 7.63684 16.4892 8.01 16.4892C8.38316 16.4892 8.74458 16.3587 9.03174 16.1204C9.3189 15.8821 9.51374 15.551 9.58256 15.1842C9.65137 14.8175 9.58983 14.4382 9.40858 14.112C9.22733 13.7858 8.93778 13.5333 8.59 13.398C8.60148 13.3624 8.60821 13.3254 8.61 13.288V9.08799H13.8V13.288C13.8 13.328 13.82 13.358 13.82 13.398C13.4722 13.5333 13.1827 13.7858 13.0014 14.112C12.8202 14.4382 12.7586 14.8175 12.8274 15.1842C12.8963 15.551 13.0911 15.8821 13.3783 16.1204C13.6654 16.3587 14.0268 16.4892 14.4 16.4892C14.7732 16.4892 15.1346 16.3587 15.4217 16.1204C15.7089 15.8821 15.9037 15.551 15.9726 15.1842C16.0414 14.8175 15.9798 14.4382 15.7986 14.112C15.6173 13.7858 15.3278 13.5333 14.98 13.398C14.9915 13.3624 14.9982 13.3254 15 13.288V3.68799C15 3.64799 14.98 3.61799 14.98 3.57799C15.3278 3.44272 15.6173 3.19015 15.7986 2.86397C15.9798 2.53779 16.0414 2.15851 15.9726 1.79176C15.9037 1.425 15.7089 1.09383 15.4217 0.855537C15.1346 0.617245 14.7732 0.486817 14.4 0.486817C14.0268 0.486817 13.6654 0.617245 13.3783 0.855537C13.0911 1.09383 12.8963 1.425 12.8274 1.79176C12.7586 2.15851 12.8202 2.53779 13.0014 2.86397C13.1827 3.19015 13.4722 3.44272 13.82 3.57799C13.8085 3.61362 13.8018 3.6506 13.8 3.68799V7.88799H8.6V3.68799C8.6 3.64799 8.58 3.61799 8.58 3.57799C8.92778 3.44272 9.21733 3.19015 9.39858 2.86397C9.57983 2.53779 9.64137 2.15851 9.57256 1.79176C9.50374 1.425 9.3089 1.09383 9.02174 0.855537C8.73458 0.617245 8.37316 0.486817 8 0.486817C7.62684 0.486817 7.26542 0.617245 6.97826 0.855537C6.6911 1.09383 6.49626 1.425 6.42744 1.79176C6.35863 2.15851 6.42017 2.53779 6.60142 2.86397C6.78267 3.19015 7.07222 3.44272 7.42 3.57799C7.40852 3.61362 7.40179 3.6506 7.4 3.68799V7.88799H2.2V3.68799C2.2 3.64799 2.18 3.61799 2.18 3.57799C2.45146 3.47241 2.68894 3.29472 2.86685 3.0641C3.04476 2.83348 3.15634 2.55867 3.18956 2.2693C3.22278 1.97994 3.17638 1.68699 3.05537 1.42205C2.93435 1.15711 2.74331 0.930235 2.50284 0.765879C2.26238 0.601524 1.98161 0.505927 1.69081 0.489396C1.40001 0.472865 1.11021 0.536028 0.85267 0.672074C0.595127 0.808119 0.379606 1.01189 0.229345 1.2614C0.0790851 1.51092 -0.000213263 1.79672 4.30757e-07 2.08799C0.00239125 2.41102 0.101898 2.72585 0.285587 2.99158C0.469276 3.2573 0.728652 3.46163 1.03 3.57799Z" stroke="none" />
	</symbol>
	<symbol id="icon-passenger" viewBox="0 0 16 17">
		<path d="M16 14.0435V16.25H0V14.0436C5.0314 11.5826 11.067 11.6308 16 14.0435ZM8 10.4303C9.7673 10.4303 11.2 8.9857 11.2 7.2036V3.9768C11.2 2.1947 9.7673 0.75 8 0.75C6.2327 0.75 4.8 2.1946 4.8 3.9768V7.2036C4.8 8.9856 6.2327 10.4303 8 10.4303Z" stroke="none" />
	</symbol>
	<symbol id="icon-bag" viewBox="0 0 16 15">
		<path d="M5.8182 1.7H10.1818V3.15H11.6364V1.6855C11.6364 0.8931 10.9913 0.25 10.1957 0.25H5.8044C5.0088 0.25 4.3637 0.8931 4.3637 1.6855V3.15H5.8183V1.7H5.8182ZM0 3.875V13.3C0 14.1004 0.6516 14.75 1.4545 14.75H14.5454C15.3483 14.75 15.9999 14.1004 15.9999 13.3V3.875H0Z" stroke="none" />
	</symbol>
	<symbol id="icon-door" viewBox="0 0 14 17">
		<path d="M11.7996 0.5H6.19961L0.599609 6.9V14.9C0.599609 15.7836 1.31601 16.5 2.19961 16.5H11.7996C12.6832 16.5 13.3996 15.7836 13.3996 14.9V2.1C13.3996 1.2163 12.6832 0.5 11.7996 0.5ZM10.9996 10.9H8.59961C8.38744 10.9 8.18395 10.8157 8.03392 10.6657C7.88389 10.5157 7.79961 10.3122 7.79961 10.1C7.79961 9.034 9.02551 9.3 10.9996 9.3C12.0572 9.3 12.0588 10.9 10.9996 10.9ZM11.7996 7.7H2.19961L6.99961 2.1C10.8285 2.1 11.7996 1.835 11.7996 2.8989V7.7Z" stroke="none" />
	</symbol>
	<symbol id="icon-eye" viewBox="0 0 22 16">
		<path d="M11 5C10.2044 5 9.44129 5.31607 8.87868 5.87868C8.31607 6.44129 8 7.20435 8 8C8 8.79565 8.31607 9.55871 8.87868 10.1213C9.44129 10.6839 10.2044 11 11 11C11.7956 11 12.5587 10.6839 13.1213 10.1213C13.6839 9.55871 14 8.79565 14 8C14 7.20435 13.6839 6.44129 13.1213 5.87868C12.5587 5.31607 11.7956 5 11 5ZM11 13C9.67392 13 8.40215 12.4732 7.46447 11.5355C6.52678 10.5979 6 9.32608 6 8C6 6.67392 6.52678 5.40215 7.46447 4.46447C8.40215 3.52678 9.67392 3 11 3C12.3261 3 13.5979 3.52678 14.5355 4.46447C15.4732 5.40215 16 6.67392 16 8C16 9.32608 15.4732 10.5979 14.5355 11.5355C13.5979 12.4732 12.3261 13 11 13ZM11 0.5C6 0.5 1.73 3.61 0 8C1.73 12.39 6 15.5 11 15.5C16 15.5 20.27 12.39 22 8C20.27 3.61 16 0.5 11 0.5Z"/>
	</symbol>
	<symbol id="icon-eye-closed" viewBox="0 0 22 11">
		<path d="M20.9751 7.07548C21.0739 7.24656 21.1259 7.44063 21.1258 7.63816C21.1258 7.8357 21.0737 8.02975 20.9749 8.2008C20.8761 8.37184 20.734 8.51385 20.5629 8.61253C20.3917 8.71122 20.1976 8.76311 20.0001 8.76299C19.8021 8.76506 19.6072 8.71395 19.4357 8.61501C19.2642 8.51607 19.1224 8.37292 19.0251 8.20048L17.497 5.55674C16.6364 6.09529 15.71 6.52068 14.7407 6.82236L15.2282 9.57861C15.2552 9.72399 15.253 9.87328 15.2217 10.0178C15.1905 10.1623 15.1308 10.2992 15.0462 10.4204C14.9616 10.5417 14.8537 10.6449 14.7288 10.7241C14.604 10.8033 14.4646 10.8569 14.3189 10.8817L14.122 10.9005C13.858 10.9002 13.6025 10.807 13.4003 10.6373C13.1981 10.4677 13.0619 10.2323 13.0157 9.97236L12.5376 7.28173C12.0278 7.34708 11.5141 7.3784 11.0001 7.37548C10.4831 7.37341 9.96667 7.34211 9.45323 7.28173L8.9751 9.97236C8.9289 10.2323 8.79278 10.4677 8.59054 10.6373C8.3883 10.807 8.13284 10.9002 7.86885 10.9005L7.67198 10.8817C7.52622 10.8569 7.38686 10.8033 7.262 10.7241C7.13714 10.6449 7.02927 10.5417 6.94465 10.4204C6.86003 10.2992 6.80037 10.1623 6.76911 10.0178C6.73786 9.87328 6.73565 9.72399 6.7626 9.57861L7.2501 6.82236C6.28377 6.52061 5.36049 6.09521 4.50323 5.55674L2.96573 8.21923C2.86621 8.38973 2.72391 8.5313 2.55292 8.62995C2.38192 8.7286 2.18814 8.78092 1.99073 8.78173C1.79314 8.78331 1.59879 8.73149 1.42823 8.63173C1.30013 8.55793 1.18783 8.45959 1.09776 8.34235C1.00769 8.22512 0.94161 8.09128 0.9033 7.94848C0.86499 7.80569 0.855201 7.65675 0.874492 7.51017C0.893783 7.36359 0.941776 7.22225 1.01573 7.09423L2.69385 4.18798C2.12599 3.68353 1.60221 3.13152 1.12823 2.53798C1.02467 2.42487 0.945331 2.29177 0.89509 2.14687C0.844848 2.00197 0.824763 1.84833 0.836069 1.69539C0.847375 1.54244 0.889832 1.39342 0.960833 1.25749C1.03183 1.12155 1.12988 1.00157 1.24894 0.904905C1.36801 0.808244 1.50558 0.736948 1.65321 0.695397C1.80083 0.653846 1.9554 0.642918 2.1074 0.663284C2.2594 0.683649 2.40564 0.734879 2.53712 0.813824C2.6686 0.89277 2.78256 0.997765 2.87198 1.12236C4.35323 2.95048 6.95948 5.12548 11.0001 5.12548C15.0407 5.12548 17.647 2.95048 19.1282 1.12236C19.2176 0.997765 19.3316 0.89277 19.4631 0.813824C19.5946 0.734879 19.7408 0.683649 19.8928 0.663284C20.0448 0.642918 20.1994 0.653846 20.347 0.695397C20.4946 0.736948 20.6322 0.808244 20.7513 0.904905C20.8703 1.00157 20.9684 1.12155 21.0394 1.25749C21.1104 1.39342 21.1528 1.54244 21.1641 1.69539C21.1754 1.84833 21.1554 2.00197 21.1051 2.14687C21.0549 2.29177 20.9755 2.42487 20.872 2.53798C20.3958 3.13252 19.8722 3.68746 19.3064 4.19736L20.9751 7.07548Z" />
	</symbol>
	<symbol id="icon-globe" viewBox="0 0 20 20">
		<path d="M10 20C8.63333 20 7.34167 19.7373 6.125 19.212C4.90833 18.6873 3.846 17.9707 2.938 17.062C2.02933 16.154 1.31267 15.0917 0.788 13.875C0.262667 12.6583 0 11.3667 0 10C0 8.61667 0.262667 7.321 0.788 6.113C1.31267 4.90433 2.02933 3.846 2.938 2.938C3.846 2.02933 4.90833 1.31233 6.125 0.787C7.34167 0.262333 8.63333 0 10 0C11.3833 0 12.679 0.262333 13.887 0.787C15.0957 1.31233 16.154 2.02933 17.062 2.938C17.9707 3.846 18.6873 4.90433 19.212 6.113C19.7373 7.321 20 8.61667 20 10C20 11.3667 19.7373 12.6583 19.212 13.875C18.6873 15.0917 17.9707 16.154 17.062 17.062C16.154 17.9707 15.0957 18.6873 13.887 19.212C12.679 19.7373 11.3833 20 10 20ZM10 17.95C10.4333 17.35 10.8083 16.725 11.125 16.075C11.4417 15.425 11.7 14.7333 11.9 14H8.1C8.3 14.7333 8.55833 15.425 8.875 16.075C9.19167 16.725 9.56667 17.35 10 17.95ZM7.4 17.55C7.1 17 6.83767 16.429 6.613 15.837C6.38767 15.2457 6.2 14.6333 6.05 14H3.1C3.58333 14.8333 4.18733 15.5583 4.912 16.175C5.63733 16.7917 6.46667 17.25 7.4 17.55ZM12.6 17.55C13.5333 17.25 14.3623 16.7917 15.087 16.175C15.8123 15.5583 16.4167 14.8333 16.9 14H13.95C13.8 14.6333 13.6127 15.2457 13.388 15.837C13.1627 16.429 12.9 17 12.6 17.55ZM2.25 12H5.65C5.6 11.6667 5.56233 11.3373 5.537 11.012C5.51233 10.6873 5.5 10.35 5.5 10C5.5 9.65 5.51233 9.31267 5.537 8.988C5.56233 8.66267 5.6 8.33333 5.65 8H2.25C2.16667 8.33333 2.104 8.66267 2.062 8.988C2.02067 9.31267 2 9.65 2 10C2 10.35 2.02067 10.6873 2.062 11.012C2.104 11.3373 2.16667 11.6667 2.25 12ZM7.65 12H12.35C12.4 11.6667 12.4377 11.3373 12.463 11.012C12.4877 10.6873 12.5 10.35 12.5 10C12.5 9.65 12.4877 9.31267 12.463 8.988C12.4377 8.66267 12.4 8.33333 12.35 8H7.65C7.6 8.33333 7.56267 8.66267 7.538 8.988C7.51267 9.31267 7.5 9.65 7.5 10C7.5 10.35 7.51267 10.6873 7.538 11.012C7.56267 11.3373 7.6 11.6667 7.65 12ZM14.35 12H17.75C17.8333 11.6667 17.896 11.3373 17.938 11.012C17.9793 10.6873 18 10.35 18 10C18 9.65 17.9793 9.31267 17.938 8.988C17.896 8.66267 17.8333 8.33333 17.75 8H14.35C14.4 8.33333 14.4373 8.66267 14.462 8.988C14.4873 9.31267 14.5 9.65 14.5 10C14.5 10.35 14.4873 10.6873 14.462 11.012C14.4373 11.3373 14.4 11.6667 14.35 12ZM13.95 6H16.9C16.4167 5.16667 15.8123 4.44167 15.087 3.825C14.3623 3.20833 13.5333 2.75 12.6 2.45C12.9 3 13.1627 3.57067 13.388 4.162C13.6127 4.754 13.8 5.36667 13.95 6ZM8.1 6H11.9C11.7 5.26667 11.4417 4.575 11.125 3.925C10.8083 3.275 10.4333 2.65 10 2.05C9.56667 2.65 9.19167 3.275 8.875 3.925C8.55833 4.575 8.3 5.26667 8.1 6ZM3.1 6H6.05C6.2 5.36667 6.38767 4.754 6.613 4.162C6.83767 3.57067 7.1 3 7.4 2.45C6.46667 2.75 5.63733 3.20833 4.912 3.825C4.18733 4.44167 3.58333 5.16667 3.1 6Z" />
	</symbol>
	<symbol id="icon-eur" viewBox="0 0 17 20">
		<path d="M16.3187 15.475C16.4236 15.5796 16.5068 15.7037 16.5636 15.8405C16.6204 15.9772 16.6496 16.1238 16.6496 16.2719C16.6496 16.42 16.6204 16.5666 16.5636 16.7033C16.5068 16.8401 16.4236 16.9643 16.3187 17.0688C15.3082 18.0804 14.0413 18.7979 12.654 19.1441C11.2667 19.4904 9.81124 19.4523 8.44387 19.0341C7.07651 18.6159 5.84881 17.8333 4.8925 16.7703C3.93619 15.7072 3.28736 14.4039 3.01562 13H1.75C1.45163 13 1.16548 12.8815 0.954505 12.6705C0.743526 12.4596 0.625 12.1734 0.625 11.875C0.625 11.5767 0.743526 11.2905 0.954505 11.0795C1.16548 10.8686 1.45163 10.75 1.75 10.75H2.875V9.25004H1.75C1.45163 9.25004 1.16548 9.13151 0.954505 8.92053C0.743526 8.70955 0.625 8.4234 0.625 8.12504C0.625 7.82667 0.743526 7.54052 0.954505 7.32954C1.16548 7.11856 1.45163 7.00004 1.75 7.00004H3.01562C3.28736 5.5962 3.93619 4.29284 4.8925 3.2298C5.84881 2.16675 7.07651 1.38414 8.44387 0.965932C9.81124 0.547723 11.2667 0.5097 12.654 0.855942C14.0413 1.20218 15.3082 1.91962 16.3187 2.93128C16.4234 3.03593 16.5064 3.16017 16.563 3.29689C16.6197 3.43362 16.6488 3.58017 16.6488 3.72816C16.6488 3.87615 16.6197 4.0227 16.563 4.15943C16.5064 4.29615 16.4234 4.42039 16.3187 4.52503C16.2141 4.62968 16.0899 4.71269 15.9531 4.76933C15.8164 4.82596 15.6699 4.85511 15.5219 4.85511C15.3739 4.85511 15.2273 4.82596 15.0906 4.76933C14.9539 4.71269 14.8296 4.62968 14.725 4.52503C14.2053 3.99962 13.5862 3.58308 12.9036 3.29977C12.2211 3.01646 11.489 2.87207 10.75 2.87504C9.52041 2.87715 8.32526 3.28144 7.34689 4.02622C6.36852 4.771 5.66064 5.81538 5.33125 7.00004H10.75C11.0484 7.00004 11.3345 7.11856 11.5455 7.32954C11.7565 7.54052 11.875 7.82667 11.875 8.12504C11.875 8.4234 11.7565 8.70955 11.5455 8.92053C11.3345 9.13151 11.0484 9.25004 10.75 9.25004H5.125V10.75H9.25C9.54837 10.75 9.83452 10.8686 10.0455 11.0795C10.2565 11.2905 10.375 11.5767 10.375 11.875C10.375 12.1734 10.2565 12.4596 10.0455 12.6705C9.83452 12.8815 9.54837 13 9.25 13H5.33125C5.66064 14.1847 6.36852 15.2291 7.34689 15.9739C8.32526 16.7186 9.52041 17.1229 10.75 17.125C11.489 17.128 12.2211 16.9836 12.9036 16.7003C13.5862 16.417 14.2053 16.0004 14.725 15.475C14.8295 15.3702 14.9537 15.2869 15.0905 15.2302C15.2272 15.1734 15.3738 15.1441 15.5219 15.1441C15.6699 15.1441 15.8165 15.1734 15.9533 15.2302C16.09 15.2869 16.2142 15.3702 16.3187 15.475Z"/>
	</symbol>
	<symbol id="icon-usd" viewBox="0 0 288 512">
		<path d="M209.2 233.4l-108-31.6C88.7 198.2 80 186.5 80 173.5c0-16.3 13.2-29.5 29.5-29.5h66.3c12.2 0 24.2 3.7 34.2 10.5 6.1 4.1 14.3 3.1 19.5-2l34.8-34c7.1-6.9 6.1-18.4-1.8-24.5C238 74.8 207.4 64.1 176 64V16c0-8.8-7.2-16-16-16h-32c-8.8 0-16 7.2-16 16v48h-2.5C45.8 64-5.4 118.7.5 183.6c4.2 46.1 39.4 83.6 83.8 96.6l102.5 30c12.5 3.7 21.2 15.3 21.2 28.3 0 16.3-13.2 29.5-29.5 29.5h-66.3C100 368 88 364.3 78 357.5c-6.1-4.1-14.3-3.1-19.5 2l-34.8 34c-7.1 6.9-6.1 18.4 1.8 24.5 24.5 19.2 55.1 29.9 86.5 30v48c0 8.8 7.2 16 16 16h32c8.8 0 16-7.2 16-16v-48.2c46.6-.9 90.3-28.6 105.7-72.7 21.5-61.6-14.6-124.8-72.5-141.7z"/>
	</symbol>
	<symbol id="icon-rub" viewBox="0 0 384 512">
		<path d="M239.36 320C324.48 320 384 260.542 384 175.071S324.48 32 239.36 32H76c-6.627 0-12 5.373-12 12v206.632H12c-6.627 0-12 5.373-12 12V308c0 6.627 5.373 12 12 12h52v32H12c-6.627 0-12 5.373-12 12v40c0 6.627 5.373 12 12 12h52v52c0 6.627 5.373 12 12 12h58.56c6.627 0 12-5.373 12-12v-52H308c6.627 0 12-5.373 12-12v-40c0-6.627-5.373-12-12-12H146.56v-32h92.8zm-92.8-219.252h78.72c46.72 0 74.88 29.11 74.88 74.323 0 45.832-28.16 75.561-76.16 75.561h-77.44V100.748z"/>
	</symbol>
	<symbol id="icon-point" viewBox="0 0 20 31">
		<path d="M9.65675 11.9909C10.3209 11.9909 10.8891 11.7559 11.3623 11.2859C11.8347 10.8166 12.0709 10.2523 12.0709 9.59274C12.0709 8.93319 11.8347 8.36848 11.3623 7.89843C10.8891 7.4292 10.3209 7.19455 9.65675 7.19455C8.99262 7.19455 8.42466 7.4292 7.95237 7.89843C7.47912 8.36848 7.24259 8.93319 7.24259 9.59274C7.24259 10.2523 7.47912 10.8166 7.95237 11.2859C8.42466 11.7559 8.99262 11.9909 9.65675 11.9909ZM9.65675 20.8043C12.111 18.566 13.9317 16.5323 15.1188 14.7033C16.3058 12.875 16.8993 11.2515 16.8993 9.83255C16.8993 7.6542 16.2003 5.87038 14.8016 4.48099C13.4035 3.09248 11.6884 2.39818 9.65675 2.39818C7.62482 2.39818 5.90959 3.09248 4.51086 4.48099C3.1131 5.87038 2.41417 7.6542 2.41417 9.83255C2.41417 11.2515 3.00772 12.875 4.19464 14.7033C5.38166 16.5323 7.20226 18.566 9.65675 20.8043ZM9.65675 23.9819C6.41774 21.244 3.99873 18.7007 2.39972 16.352C0.799844 14.0042 0 11.831 0 9.83255C0 6.83482 0.970842 4.4466 2.91272 2.66797C4.85372 0.889328 7.10174 0 9.65675 0C12.2121 0 14.4599 0.889328 16.4009 2.66797C18.3426 4.4466 19.3135 6.83482 19.3135 9.83255C19.3135 11.831 18.5142 14.0042 16.9149 16.352C15.3149 18.7007 12.8955 21.244 9.65675 23.9819Z"/>
		<path d="M10.0282 30.0697C12.4897 30.0697 14.4852 29.4091 14.4852 28.594C14.4852 27.7789 12.4897 27.1182 10.0282 27.1182C7.56668 27.1182 5.57129 27.7789 5.57129 28.594C5.57129 29.4091 7.56668 30.0697 10.0282 30.0697Z"/>
	</symbol>
	<symbol id="icon-star" viewBox="0 0 32 29">
		<path d="M16 0L19.5922 11.0557H31.2169L21.8123 17.8885L25.4046 28.9443L16 22.1115L6.59544 28.9443L10.1877 17.8885L0.783095 11.0557H12.4078L16 0Z" />
	</symbol>
	<symbol id="icon-eye" viewBox="0 0 576 512">
		<path d="M288 144a110.94 110.94 0 0 0-31.24 5 55.4 55.4 0 0 1 7.24 27 56 56 0 0 1-56 56 55.4 55.4 0 0 1-27-7.24A111.71 111.71 0 1 0 288 144zm284.52 97.4C518.29 135.59 410.93 64 288 64S57.68 135.64 3.48 241.41a32.35 32.35 0 0 0 0 29.19C57.71 376.41 165.07 448 288 448s230.32-71.64 284.52-177.41a32.35 32.35 0 0 0 0-29.19zM288 400c-98.65 0-189.09-55-237.93-144C98.91 167 189.34 112 288 112s189.09 55 237.93 144C477.1 345 386.66 400 288 400z"/>
	</symbol>
	<symbol id="icon-eye-close" viewBox="0 0 640 512">
		<path d="M634 471L36 3.51A16 16 0 0 0 13.51 6l-10 12.49A16 16 0 0 0 6 41l598 467.49a16 16 0 0 0 22.49-2.49l10-12.49A16 16 0 0 0 634 471zM296.79 146.47l134.79 105.38C429.36 191.91 380.48 144 320 144a112.26 112.26 0 0 0-23.21 2.47zm46.42 219.07L208.42 260.16C210.65 320.09 259.53 368 320 368a113 113 0 0 0 23.21-2.46zM320 112c98.65 0 189.09 55 237.93 144a285.53 285.53 0 0 1-44 60.2l37.74 29.5a333.7 333.7 0 0 0 52.9-75.11 32.35 32.35 0 0 0 0-29.19C550.29 135.59 442.93 64 320 64c-36.7 0-71.71 7-104.63 18.81l46.41 36.29c18.94-4.3 38.34-7.1 58.22-7.1zm0 288c-98.65 0-189.08-55-237.93-144a285.47 285.47 0 0 1 44.05-60.19l-37.74-29.5a333.6 333.6 0 0 0-52.89 75.1 32.35 32.35 0 0 0 0 29.19C89.72 376.41 197.08 448 320 448c36.7 0 71.71-7.05 104.63-18.81l-46.41-36.28C359.28 397.2 339.89 400 320 400z"/>
	</symbol>
	<symbol id="icon-user" viewBox="0 0 21 19">
		<path d="M746,101l3.545-5.182h13.964L767,101H746Zm10.527-6.046c-2.892,0-5.236-3.184-5.236-6.046V87.182a5.237,5.237,0,0,1,10.473,0v1.727C761.764,91.771,759.419,94.954,756.527,94.954Z" transform="translate(-746 -82)"/>
	</symbol>
	<symbol id="icon-calendar" viewBox="0 0 24 24">
		<path d="M8 14C7.71667 14 7.479 13.904 7.287 13.712C7.09567 13.5207 7 13.2833 7 13C7 12.7167 7.09567 12.479 7.287 12.287C7.479 12.0957 7.71667 12 8 12C8.28333 12 8.521 12.0957 8.713 12.287C8.90433 12.479 9 12.7167 9 13C9 13.2833 8.90433 13.5207 8.713 13.712C8.521 13.904 8.28333 14 8 14ZM12 14C11.7167 14 11.4793 13.904 11.288 13.712C11.096 13.5207 11 13.2833 11 13C11 12.7167 11.096 12.479 11.288 12.287C11.4793 12.0957 11.7167 12 12 12C12.2833 12 12.521 12.0957 12.713 12.287C12.9043 12.479 13 12.7167 13 13C13 13.2833 12.9043 13.5207 12.713 13.712C12.521 13.904 12.2833 14 12 14ZM16 14C15.7167 14 15.4793 13.904 15.288 13.712C15.096 13.5207 15 13.2833 15 13C15 12.7167 15.096 12.479 15.288 12.287C15.4793 12.0957 15.7167 12 16 12C16.2833 12 16.5207 12.0957 16.712 12.287C16.904 12.479 17 12.7167 17 13C17 13.2833 16.904 13.5207 16.712 13.712C16.5207 13.904 16.2833 14 16 14ZM5 22C4.45 22 3.979 21.8043 3.587 21.413C3.19567 21.021 3 20.55 3 20V6C3 5.45 3.19567 4.97933 3.587 4.588C3.979 4.196 4.45 4 5 4H6V2H8V4H16V2H18V4H19C19.55 4 20.021 4.196 20.413 4.588C20.8043 4.97933 21 5.45 21 6V20C21 20.55 20.8043 21.021 20.413 21.413C20.021 21.8043 19.55 22 19 22H5ZM5 20H19V10H5V20Z" />
	</symbol>
	<symbol id="icon-clock" viewBox="0 0 24 24">
		<path d="M11.99 2C6.47 2 2 6.48 2 12C2 17.52 6.47 22 11.99 22C17.52 22 22 17.52 22 12C22 6.48 17.52 2 11.99 2ZM15.29 16.71L11 12.41V7H13V11.59L16.71 15.3L15.29 16.71Z" />
	</symbol>
	<symbol id="icon-bin" viewBox="0 0 24 24">
		<path d="M19 4H15.5L14.5 3H9.5L8.5 4H5V6H19M6 19C6 19.5304 6.21071 20.0391 6.58579 20.4142C6.96086 20.7893 7.46957 21 8 21H16C16.5304 21 17.0391 20.7893 17.4142 20.4142C17.7893 20.0391 18 19.5304 18 19V7H6V19Z"/>
	</symbol>
</svg>
