<svg xmlns="http://www.w3.org/2000/svg">
	<symbol id="icon-cross" viewBox="0 0 10.192457 10.192453">
		<path fill-rule="evenodd" clip-rule="evenodd" d="m 9.3388825,10.045954 c 0.1953,0.195299 0.5118,0.195299 0.7071005,0 0.1953,-0.1953005 0.1953,-0.5119005 0,-0.7071005 l -4.2426205,-4.24264 4.2426195,-4.24258 c 0.1952,-0.19527 0.1952,-0.51185 0,-0.70711 -0.1952995,-0.195263 -0.5118995,-0.195263 -0.7070995,0 l -4.24263,4.24258 -4.24266,-4.24266 c -0.19526,-0.195258 -0.51184,-0.195258 -0.707104,0 -0.195263,0.19527 -0.195263,0.51185 0,0.70711 l 4.242654,4.24266 -4.242696,4.24274 c -0.195262,0.1952 -0.195262,0.5118 0,0.7070995 0.195266,0.1952 0.511846,0.1952 0.707106,0 l 4.2427,-4.2427295 z"/>
	</symbol>
	<symbol id="icon-cross-bold" viewBox="0 0 9.9996977 10.000261">
		<path d="M 9.0291458,4.1288338e-4 A 1,1 0 0 0 8.2928178,0.29338168 L 0.29281765,8.2933819 a 1,1 0 0 0 0,1.414062 1,1 0 0 0 1.41406235,0 L 9.7068798,1.7074441 a 1,1 0 0 0 0,-1.41406242 1,1 0 0 0 -0.677734,-0.29296879662 z"/>
		<path d="M 1.0291457,4.1288338e-4 A 1,1 0 0 0 0.29281765,0.29338168 a 1,1 0 0 0 0,1.41406242 L 8.2928178,9.7074439 a 1,1 0 0 0 1.414062,0 1,1 0 0 0 0,-1.414062 L 1.70688,0.29338168 A 1,1 0 0 0 1.0291457,4.1288338e-4 Z"/>
	</symbol>
	<symbol id="icon-ok" viewBox="0 0 15.688 11.38">
		<path d="M543.339,1491.68a1.034,1.034,0,0,1-.73-0.3l-4.315-4.31a1.033,1.033,0,0,1,1.461-1.46l3.584,3.58,8.59-8.58a1.02,1.02,0,0,1,1.46,0,1.031,1.031,0,0,1,0,1.46l-9.319,9.31A1.035,1.035,0,0,1,543.339,1491.68Z" transform="translate(-538 -1480.31)" fill-rule="evenodd"/>
	</symbol>
	<symbol id="icon-arrow-long" viewBox="0 0 26.000105 14.060141">
		<path d="m 18.986328,0 c -0.305125,0 -0.610297,0.11617425 -0.841797,0.34765625 -0.463,0.462965 -0.463,1.22063375 0,1.68359375 l 3.808594,3.8085938 H 1.1894531 C 0.53200015,5.8398438 0,6.3718569 0,7.0292969 0,7.6867369 0.53200014,8.2207031 1.1894531,8.2207031 H 21.955078 l -3.810547,3.8085939 c -0.463,0.463 -0.463,1.220594 0,1.683594 0.463,0.463 1.220594,0.463 1.683594,0 L 25.652344,7.8886719 C 25.887944,7.6531319 26.0041,7.34171 26,7.03125 26.000001,7.0305841 26,7.02996 26,7.0293 26,7.02237 25.9962,7.016672 25.9961,7.009769 25.99458,6.70651 25.882408,6.4018807 25.652344,6.171875 L 19.828125,0.34765625 C 19.596625,0.11617425 19.291453,0 18.986328,0 Z" />
	</symbol>
	<symbol id="icon-arrow-short" viewBox="0 0 6.585 11.175024">
		<path d="m 0.2925,1.71252 3.88,3.88 -3.88,3.88 c -0.39,0.39 -0.39,1.02 0,1.410004 0.39,0.39 1.02,0.39 1.41,0 l 4.59,-4.590004 c 0.39,-0.39 0.39,-1.02 0,-1.41 L 1.7025,0.2925 c -0.39,-0.39 -1.02,-0.39 -1.41,0 -0.38,0.39 -0.39,1.03 0,1.42002 z"/>
	</symbol>
	<symbol id="icon-search" viewBox="0 0 24 24">
		<path d="M18.031 16.617L22.314 20.899L20.899 22.314L16.617 18.031C15.0237 19.3082 13.042 20.0029 11 20C6.032 20 2 15.968 2 11C2 6.032 6.032 2 11 2C15.968 2 20 6.032 20 11C20.0029 13.042 19.3082 15.0237 18.031 16.617ZM16.025 15.875C17.2941 14.5699 18.0029 12.8204 18 11C18 7.132 14.867 4 11 4C7.132 4 4 7.132 4 11C4 14.867 7.132 18 11 18C12.8204 18.0029 14.5699 17.2941 15.875 16.025L16.025 15.875Z"/>
	</symbol>
	<symbol id="icon-menu" viewBox="0 0 448 512">
		<path d="M432 416H16a16 16 0 0 0-16 16v32a16 16 0 0 0 16 16h416a16 16 0 0 0 16-16v-32a16 16 0 0 0-16-16zm0-128H16a16 16 0 0 0-16 16v32a16 16 0 0 0 16 16h416a16 16 0 0 0 16-16v-32a16 16 0 0 0-16-16zm0-128H16a16 16 0 0 0-16 16v32a16 16 0 0 0 16 16h416a16 16 0 0 0 16-16v-32a16 16 0 0 0-16-16zm0-128H16A16 16 0 0 0 0 48v32a16 16 0 0 0 16 16h416a16 16 0 0 0 16-16V48a16 16 0 0 0-16-16z"/>
	</symbol>
	<symbol id="icon-spinner" viewBox="0 0 512 512">
		<path d="M96 256c0-6.090 0.352-12.098 1.015-18.011l-92.49-30.052c-2.958 15.57-4.525 31.632-4.525 48.063 0 73.615 31.083 139.961 80.827 186.662l57.142-78.648c-26.062-28.463-41.969-66.379-41.969-108.014zM416 256c0 41.634-15.906 79.551-41.969 108.014l57.142 78.648c49.744-46.701 80.827-113.047 80.827-186.662 0-16.431-1.566-32.493-4.524-48.063l-92.49 30.052c0.662 5.914 1.014 11.921 1.014 18.011zM288 99.204c45.967 9.331 84.772 38.371 107.225 77.913l92.489-30.051c-36.598-77.71-111.12-134.030-199.714-145.078v97.216zM116.775 177.116c22.453-39.542 61.258-68.582 107.225-77.913v-97.215c-88.594 11.048-163.115 67.368-199.713 145.077l92.488 30.051zM322.278 401.664c-20.195 9.204-42.636 14.336-66.278 14.336s-46.083-5.132-66.277-14.335l-57.146 78.655c36.603 20.183 78.668 31.68 123.423 31.68s86.82-11.497 123.424-31.68l-57.146-78.656z"/>
	</symbol>
	<symbol id="icon-globe" viewBox="0 0 20 20">
		<path d="M10 20C8.63333 20 7.34167 19.7373 6.125 19.212C4.90833 18.6873 3.846 17.9707 2.938 17.062C2.02933 16.154 1.31267 15.0917 0.788 13.875C0.262667 12.6583 0 11.3667 0 10C0 8.61667 0.262667 7.321 0.788 6.113C1.31267 4.90433 2.02933 3.846 2.938 2.938C3.846 2.02933 4.90833 1.31233 6.125 0.787C7.34167 0.262333 8.63333 0 10 0C11.3833 0 12.679 0.262333 13.887 0.787C15.0957 1.31233 16.154 2.02933 17.062 2.938C17.9707 3.846 18.6873 4.90433 19.212 6.113C19.7373 7.321 20 8.61667 20 10C20 11.3667 19.7373 12.6583 19.212 13.875C18.6873 15.0917 17.9707 16.154 17.062 17.062C16.154 17.9707 15.0957 18.6873 13.887 19.212C12.679 19.7373 11.3833 20 10 20ZM10 17.95C10.4333 17.35 10.8083 16.725 11.125 16.075C11.4417 15.425 11.7 14.7333 11.9 14H8.1C8.3 14.7333 8.55833 15.425 8.875 16.075C9.19167 16.725 9.56667 17.35 10 17.95ZM7.4 17.55C7.1 17 6.83767 16.429 6.613 15.837C6.38767 15.2457 6.2 14.6333 6.05 14H3.1C3.58333 14.8333 4.18733 15.5583 4.912 16.175C5.63733 16.7917 6.46667 17.25 7.4 17.55ZM12.6 17.55C13.5333 17.25 14.3623 16.7917 15.087 16.175C15.8123 15.5583 16.4167 14.8333 16.9 14H13.95C13.8 14.6333 13.6127 15.2457 13.388 15.837C13.1627 16.429 12.9 17 12.6 17.55ZM2.25 12H5.65C5.6 11.6667 5.56233 11.3373 5.537 11.012C5.51233 10.6873 5.5 10.35 5.5 10C5.5 9.65 5.51233 9.31267 5.537 8.988C5.56233 8.66267 5.6 8.33333 5.65 8H2.25C2.16667 8.33333 2.104 8.66267 2.062 8.988C2.02067 9.31267 2 9.65 2 10C2 10.35 2.02067 10.6873 2.062 11.012C2.104 11.3373 2.16667 11.6667 2.25 12ZM7.65 12H12.35C12.4 11.6667 12.4377 11.3373 12.463 11.012C12.4877 10.6873 12.5 10.35 12.5 10C12.5 9.65 12.4877 9.31267 12.463 8.988C12.4377 8.66267 12.4 8.33333 12.35 8H7.65C7.6 8.33333 7.56267 8.66267 7.538 8.988C7.51267 9.31267 7.5 9.65 7.5 10C7.5 10.35 7.51267 10.6873 7.538 11.012C7.56267 11.3373 7.6 11.6667 7.65 12ZM14.35 12H17.75C17.8333 11.6667 17.896 11.3373 17.938 11.012C17.9793 10.6873 18 10.35 18 10C18 9.65 17.9793 9.31267 17.938 8.988C17.896 8.66267 17.8333 8.33333 17.75 8H14.35C14.4 8.33333 14.4373 8.66267 14.462 8.988C14.4873 9.31267 14.5 9.65 14.5 10C14.5 10.35 14.4873 10.6873 14.462 11.012C14.4373 11.3373 14.4 11.6667 14.35 12ZM13.95 6H16.9C16.4167 5.16667 15.8123 4.44167 15.087 3.825C14.3623 3.20833 13.5333 2.75 12.6 2.45C12.9 3 13.1627 3.57067 13.388 4.162C13.6127 4.754 13.8 5.36667 13.95 6ZM8.1 6H11.9C11.7 5.26667 11.4417 4.575 11.125 3.925C10.8083 3.275 10.4333 2.65 10 2.05C9.56667 2.65 9.19167 3.275 8.875 3.925C8.55833 4.575 8.3 5.26667 8.1 6ZM3.1 6H6.05C6.2 5.36667 6.38767 4.754 6.613 4.162C6.83767 3.57067 7.1 3 7.4 2.45C6.46667 2.75 5.63733 3.20833 4.912 3.825C4.18733 4.44167 3.58333 5.16667 3.1 6Z" />
	</symbol>
	<symbol id="icon-star" viewBox="0 0 32 29">
		<path d="M16 0L19.5922 11.0557H31.2169L21.8123 17.8885L25.4046 28.9443L16 22.1115L6.59544 28.9443L10.1877 17.8885L0.783095 11.0557H12.4078L16 0Z" />
	</symbol>
	<symbol id="icon-calendar" viewBox="0 0 24 24">
		<path d="M8 14C7.71667 14 7.479 13.904 7.287 13.712C7.09567 13.5207 7 13.2833 7 13C7 12.7167 7.09567 12.479 7.287 12.287C7.479 12.0957 7.71667 12 8 12C8.28333 12 8.521 12.0957 8.713 12.287C8.90433 12.479 9 12.7167 9 13C9 13.2833 8.90433 13.5207 8.713 13.712C8.521 13.904 8.28333 14 8 14ZM12 14C11.7167 14 11.4793 13.904 11.288 13.712C11.096 13.5207 11 13.2833 11 13C11 12.7167 11.096 12.479 11.288 12.287C11.4793 12.0957 11.7167 12 12 12C12.2833 12 12.521 12.0957 12.713 12.287C12.9043 12.479 13 12.7167 13 13C13 13.2833 12.9043 13.5207 12.713 13.712C12.521 13.904 12.2833 14 12 14ZM16 14C15.7167 14 15.4793 13.904 15.288 13.712C15.096 13.5207 15 13.2833 15 13C15 12.7167 15.096 12.479 15.288 12.287C15.4793 12.0957 15.7167 12 16 12C16.2833 12 16.5207 12.0957 16.712 12.287C16.904 12.479 17 12.7167 17 13C17 13.2833 16.904 13.5207 16.712 13.712C16.5207 13.904 16.2833 14 16 14ZM5 22C4.45 22 3.979 21.8043 3.587 21.413C3.19567 21.021 3 20.55 3 20V6C3 5.45 3.19567 4.97933 3.587 4.588C3.979 4.196 4.45 4 5 4H6V2H8V4H16V2H18V4H19C19.55 4 20.021 4.196 20.413 4.588C20.8043 4.97933 21 5.45 21 6V20C21 20.55 20.8043 21.021 20.413 21.413C20.021 21.8043 19.55 22 19 22H5ZM5 20H19V10H5V20Z" />
	</symbol>
	<symbol id="icon-clock" viewBox="0 0 512 512">
		<path d="M256 8C119 8 8 119 8 256s111 248 248 248 248-111 248-248S393 8 256 8zm0 448c-110.5 0-200-89.5-200-200S145.5 56 256 56s200 89.5 200 200-89.5 200-200 200zm61.8-104.4l-84.9-61.7c-3.1-2.3-4.9-5.9-4.9-9.7V116c0-6.6 5.4-12 12-12h32c6.6 0 12 5.4 12 12v141.7l66.8 48.6c5.4 3.9 6.5 11.4 2.6 16.8L334.6 349c-3.9 5.3-11.4 6.5-16.8 2.6z"/>
	</symbol>
	<symbol id="icon-bin" viewBox="0 0 24 24">
		<path d="M19 4H15.5L14.5 3H9.5L8.5 4H5V6H19M6 19C6 19.5304 6.21071 20.0391 6.58579 20.4142C6.96086 20.7893 7.46957 21 8 21H16C16.5304 21 17.0391 20.7893 17.4142 20.4142C17.7893 20.0391 18 19.5304 18 19V7H6V19Z"/>
	</symbol>
	<symbol id="icon-warn" viewBox="0 0 576 512">
		<path d="M569.517 440.013C587.975 472.007 564.806 512 527.94 512H48.054c-36.937 0-59.999-40.055-41.577-71.987L246.423 23.985c18.467-32.009 64.72-31.951 83.154 0l239.94 416.028zM288 354c-25.405 0-46 20.595-46 46s20.595 46 46 46 46-20.595 46-46-20.595-46-46-46zm-43.673-165.346l7.418 136c.347 6.364 5.609 11.346 11.982 11.346h48.546c6.373 0 11.635-4.982 11.982-11.346l7.418-136c.375-6.874-5.098-12.654-11.982-12.654h-63.383c-6.884 0-12.356 5.78-11.981 12.654z"/>
	</symbol>
	<symbol id="icon-indent" viewBox="0 0 448 512">
		<path d="M27.31 363.3l96-96a16 16 0 0 0 0-22.62l-96-96C17.27 138.66 0 145.78 0 160v192c0 14.31 17.33 21.3 27.31 11.3zM432 416H16a16 16 0 0 0-16 16v32a16 16 0 0 0 16 16h416a16 16 0 0 0 16-16v-32a16 16 0 0 0-16-16zm3.17-128H204.83A12.82 12.82 0 0 0 192 300.83v38.34A12.82 12.82 0 0 0 204.83 352h230.34A12.82 12.82 0 0 0 448 339.17v-38.34A12.82 12.82 0 0 0 435.17 288zm0-128H204.83A12.82 12.82 0 0 0 192 172.83v38.34A12.82 12.82 0 0 0 204.83 224h230.34A12.82 12.82 0 0 0 448 211.17v-38.34A12.82 12.82 0 0 0 435.17 160zM432 32H16A16 16 0 0 0 0 48v32a16 16 0 0 0 16 16h416a16 16 0 0 0 16-16V48a16 16 0 0 0-16-16z"/>
	</symbol>
	<symbol id="icon-drag" viewBox="0 0 320 512">
		<path d="M96 32H32C14.33 32 0 46.33 0 64v64c0 17.67 14.33 32 32 32h64c17.67 0 32-14.33 32-32V64c0-17.67-14.33-32-32-32zm0 160H32c-17.67 0-32 14.33-32 32v64c0 17.67 14.33 32 32 32h64c17.67 0 32-14.33 32-32v-64c0-17.67-14.33-32-32-32zm0 160H32c-17.67 0-32 14.33-32 32v64c0 17.67 14.33 32 32 32h64c17.67 0 32-14.33 32-32v-64c0-17.67-14.33-32-32-32zM288 32h-64c-17.67 0-32 14.33-32 32v64c0 17.67 14.33 32 32 32h64c17.67 0 32-14.33 32-32V64c0-17.67-14.33-32-32-32zm0 160h-64c-17.67 0-32 14.33-32 32v64c0 17.67 14.33 32 32 32h64c17.67 0 32-14.33 32-32v-64c0-17.67-14.33-32-32-32zm0 160h-64c-17.67 0-32 14.33-32 32v64c0 17.67 14.33 32 32 32h64c17.67 0 32-14.33 32-32v-64c0-17.67-14.33-32-32-32z"/>
	</symbol>
	<symbol id="icon-like" viewBox="0 0 512 512">
		<path d="M104 224H24c-13.255 0-24 10.745-24 24v240c0 13.255 10.745 24 24 24h80c13.255 0 24-10.745 24-24V248c0-13.255-10.745-24-24-24zM64 472c-13.255 0-24-10.745-24-24s10.745-24 24-24 24 10.745 24 24-10.745 24-24 24zM384 81.452c0 42.416-25.97 66.208-33.277 94.548h101.723c33.397 0 59.397 27.746 59.553 58.098.084 17.938-7.546 37.249-19.439 49.197l-.11.11c9.836 23.337 8.237 56.037-9.308 79.469 8.681 25.895-.069 57.704-16.382 74.757 4.298 17.598 2.244 32.575-6.148 44.632C440.202 511.587 389.616 512 346.839 512l-2.845-.001c-48.287-.017-87.806-17.598-119.56-31.725-15.957-7.099-36.821-15.887-52.651-16.178-6.54-.12-11.783-5.457-11.783-11.998v-213.77c0-3.2 1.282-6.271 3.558-8.521 39.614-39.144 56.648-80.587 89.117-113.111 14.804-14.832 20.188-37.236 25.393-58.902C282.515 39.293 291.817 0 312 0c24 0 72 8 72 81.452z"/>
	</symbol>
	<symbol id="icon-comment" viewBox="0 0 512 512">
		<path d="M144 208c-17.7 0-32 14.3-32 32s14.3 32 32 32 32-14.3 32-32-14.3-32-32-32zm112 0c-17.7 0-32 14.3-32 32s14.3 32 32 32 32-14.3 32-32-14.3-32-32-32zm112 0c-17.7 0-32 14.3-32 32s14.3 32 32 32 32-14.3 32-32-14.3-32-32-32zM256 32C114.6 32 0 125.1 0 240c0 47.6 19.9 91.2 52.9 126.3C38 405.7 7 439.1 6.5 439.5c-6.6 7-8.4 17.2-4.6 26S14.4 480 24 480c61.5 0 110-25.7 139.1-46.3C192 442.8 223.2 448 256 448c141.4 0 256-93.1 256-208S397.4 32 256 32zm0 368c-26.7 0-53.1-4.1-78.4-12.1l-22.7-7.2-19.5 13.8c-14.3 10.1-33.9 21.4-57.5 29 7.3-12.1 14.4-25.7 19.9-40.2l10.6-28.1-20.6-21.8C69.7 314.1 48 282.2 48 240c0-88.2 93.3-160 208-160s208 71.8 208 160-93.3 160-208 160z"/>
	</symbol>
	<symbol id="icon-file" viewBox="0 0 384 512">
		<path d="M288 248v28c0 6.6-5.4 12-12 12H108c-6.6 0-12-5.4-12-12v-28c0-6.6 5.4-12 12-12h168c6.6 0 12 5.4 12 12zm-12 72H108c-6.6 0-12 5.4-12 12v28c0 6.6 5.4 12 12 12h168c6.6 0 12-5.4 12-12v-28c0-6.6-5.4-12-12-12zm108-188.1V464c0 26.5-21.5 48-48 48H48c-26.5 0-48-21.5-48-48V48C0 21.5 21.5 0 48 0h204.1C264.8 0 277 5.1 286 14.1L369.9 98c9 8.9 14.1 21.2 14.1 33.9zm-128-80V128h76.1L256 51.9zM336 464V176H232c-13.3 0-24-10.7-24-24V48H48v416h288z"/>
	</symbol>
	<symbol id="icon-image" viewBox="0 0 384 512">
		<path d="M369.9 97.9L286 14C277 5 264.8-.1 252.1-.1H48C21.5 0 0 21.5 0 48v416c0 26.5 21.5 48 48 48h288c26.5 0 48-21.5 48-48V131.9c0-12.7-5.1-25-14.1-34zM332.1 128H256V51.9l76.1 76.1zM48 464V48h160v104c0 13.3 10.7 24 24 24h104v288H48zm32-48h224V288l-23.5-23.5c-4.7-4.7-12.3-4.7-17 0L176 352l-39.5-39.5c-4.7-4.7-12.3-4.7-17 0L80 352v64zm48-240c-26.5 0-48 21.5-48 48s21.5 48 48 48 48-21.5 48-48-21.5-48-48-48z"/>
	</symbol>
	<symbol id="icon-caret" viewBox="0 0 320 512">
		<path d="M31.3 192h257.3c17.8 0 26.7 21.5 14.1 34.1L174.1 354.8c-7.8 7.8-20.5 7.8-28.3 0L17.2 226.1C4.6 213.5 13.5 192 31.3 192z"/>
	</symbol>
	<symbol id="icon-pen" viewBox="0 0 512 512">
		<path d="M497.9 142.1l-46.1 46.1c-4.7 4.7-12.3 4.7-17 0l-111-111c-4.7-4.7-4.7-12.3 0-17l46.1-46.1c18.7-18.7 49.1-18.7 67.9 0l60.1 60.1c18.8 18.7 18.8 49.1 0 67.9zM284.2 99.8L21.6 362.4.4 483.9c-2.9 16.4 11.4 30.6 27.8 27.8l121.5-21.3 262.6-262.6c4.7-4.7 4.7-12.3 0-17l-111-111c-4.8-4.7-12.4-4.7-17.1 0zM124.1 339.9c-5.5-5.5-5.5-14.3 0-19.8l154-154c5.5-5.5 14.3-5.5 19.8 0s5.5 14.3 0 19.8l-154 154c-5.5 5.5-14.3 5.5-19.8 0zM88 424h48v36.3l-64.5 11.3-31.1-31.1L51.7 376H88v48z"/>
	</symbol>
</svg>
